<svg xmlns="http://www.w3.org/2000/svg" width="20" height="36" viewBox="0 0 20 36">
  <path fill="#BAB8B4" d="M157.999952,2726.42635 C157.997762,2725.84768 157.637222,2725.3272 157.086283,2725.10736 C156.535345,2724.88753 155.902372,2725.01159 155.482225,2725.42174 L138.421651,2741.9978 C137.85945,2742.55617 137.85945,2743.44866 138.421651,2744.00702 L155.482225,2760.58309 C155.628194,2760.7258 155.804697,2760.83555 155.999212,2760.90456 C156.164687,2760.96475 156.339533,2760.99703 156.516199,2761 C156.692928,2760.99763 156.867879,2760.96534 157.033186,2760.90456 C157.498116,2760.7354 157.842489,2760.34799 157.947084,2759.87645 C158.051678,2759.40492 157.902115,2758.91408 157.550173,2758.57387 L141.487384,2743.0426 L157.570853,2727.43096 C157.848255,2727.16653 158.003138,2726.80392 157.999952,2726.42635 Z" transform="translate(-138 -2725)"/>
</svg>
