<svg xmlns="http://www.w3.org/2000/svg" width="20" height="36" viewBox="0 0 20 36">
  <path fill="#BAB8B4" d="M1290.49085,2734.41678 C1290.21798,2734.15001 1289.84691,2734 1289.45985,2734 C1289.0728,2734 1288.70173,2734.15001 1288.42886,2734.41678 C1288.15435,2734.68196 1288,2735.04258 1288,2735.41873 C1288,2735.79488 1288.15435,2736.1555 1288.42886,2736.42068 L1304.40926,2751.99099 L1288.42886,2767.56632 C1288.15435,2767.8315 1288,2768.19212 1288,2768.56827 C1288,2768.94442 1288.15435,2769.30504 1288.42886,2769.57022 C1288.56915,2769.72218 1288.74638,2769.83758 1288.94436,2769.90587 C1289.29188,2770.03138 1289.67423,2770.03138 1290.02175,2769.90587 C1290.21963,2769.83739 1290.3968,2769.72202 1290.53724,2769.57022 L1307.57956,2753.03803 C1308.14015,2752.48115 1308.14015,2751.59102 1307.57956,2751.03413 L1290.49085,2734.41678 Z" transform="translate(-1288 -2734)"/>
</svg>
