<?xml version="1.0" encoding="UTF-8"?>
<svg width="30px" height="30px" viewBox="0 0 30 30" version="1.1" xmlns="http://www.w3.org/2000/svg" xmlns:xlink="http://www.w3.org/1999/xlink">
    <defs>
        <polygon id="path-1" points="0 -1.08670017e-13 30 -1.08670017e-13 30 10 0 10"></polygon>
    </defs>
    <g id="Designs" stroke="none" stroke-width="1" fill="none" fill-rule="evenodd">
        <g id="Design-Specifics" transform="translate(-1049.000000, -771.000000)">
            <g id="Footer-Design" transform="translate(0.000000, 606.000000)">
                <g id="Footer">
                    <g id="Social" transform="translate(991.000000, 161.000000)">
                        <g id="Instagram" transform="translate(58.000000, 4.000000)">
                            <g id="Group-3">
                                <mask id="mask-2" fill="white">
                                    <use xlink:href="#path-1"></use>
                                </mask>
                                <g id="Clip-2"></g>
                                <path d="M22.0039832,5.49882673 L22.004847,5.49882673 C22.004847,6.03974153 21.9959211,6.580798 22.0073664,7.12150029 C22.0184518,7.64718503 22.3982356,7.99825546 22.9355906,7.99896383 C23.9746691,8.00030974 25.0137475,8.00038058 26.052754,7.99896383 C26.6071691,7.99825546 26.9952309,7.62281695 26.9971024,7.0770852 C27.0008456,6.02904507 27.0011335,4.98100494 26.9969585,3.93303564 C26.994799,3.38432872 26.6257408,3.0103778 26.0681584,3.00612755 C25.0205859,2.99812292 23.9728695,2.9976979 22.925297,3.0064109 C22.3776483,3.0109445 22.0208273,3.35663128 22.0070065,3.89315415 C21.9932577,4.42804777 22.0039832,4.96357892 22.0039832,5.49882673 M6.08996087,-1.08670017e-13 L6.44082624,-1.08670017e-13 C6.60536748,0.0428317932 6.65573128,0.164423608 6.65573128,0.320978637 C6.65565818,0.368487039 6.65675463,0.41599544 6.65660844,0.46342961 C6.65390385,1.41619575 6.65054139,2.3689619 6.64856778,3.32172804 C6.64659416,4.36951099 6.6455708,5.41729394 6.64476673,6.46500265 C6.64454744,6.75279964 6.64045401,7.04081932 6.64922565,7.32831938 C6.65448863,7.50157659 6.7248079,7.57966852 6.89198062,7.58167278 C7.12501371,7.58441936 7.35892395,7.57016684 7.59115297,7.5486396 C7.72177722,7.53661403 7.80912808,7.45057929 7.83171504,7.31384417 C7.84611514,7.22639902 7.858834,7.13754346 7.86000356,7.04913329 C7.86395079,6.71679718 7.8638046,6.3843126 7.8636584,6.05190225 C7.86263505,4.15230852 7.86080762,2.25264055 7.86022285,0.352972576 C7.86014975,0.153659986 7.86000356,0.055599676 8.08982037,-1.08670017e-13 L21.7033967,-1.08670017e-13 C21.7349745,0.00356313011 21.7664793,0.0103182309 21.797911,0.0103924628 C22.6077521,0.0123224916 23.4176664,0.015143303 24.2275075,0.0141040567 C24.6385317,0.0135844335 25.0442197,0.0559708354 25.4437677,0.153363058 C26.7016931,0.460089175 27.7415704,1.13047726 28.5824777,2.12021088 C29.2541656,2.91078037 29.6993991,3.81752275 29.8838227,4.84986547 C29.9822843,5.40140831 29.9937605,5.96030012 29.9974154,6.51778152 C30.0043596,7.6043135 29.9954418,8.69091972 29.9924448,9.77745171 C29.9919331,9.94736848 29.9461013,9.99220453 29.7779052,9.99524804 C29.7428187,9.99584189 29.7077322,9.99584189 29.6726456,9.99584189 C26.6934332,9.99613882 23.7142207,9.99487688 20.7350082,9.99999888 C20.535819,10.0002958 20.3829002,9.94172685 20.2406536,9.80343287 C19.848927,9.42232641 19.4188245,9.08947067 18.9540741,8.80545951 C17.29682,7.79249131 15.5140585,7.43877642 13.6087133,7.79345633 C12.1248452,8.06967314 10.8398739,8.75958421 9.73530585,9.79801394 C9.58874646,9.93571407 9.43129563,9.99844001 9.23093689,9.99821731 C6.23418116,9.99457995 3.23742543,9.9953965 0.240742794,9.99517381 C0.0581466091,9.99517381 0.0139960502,9.951377 0.014361535,9.76327342 C0.0148732137,9.49017434 0.0202092911,9.21700104 0.0186011582,8.94382773 C0.0121686265,7.79234285 -0.0359291678,6.64056104 0.0539069859,5.48981848 C0.108437312,4.79129652 0.262306395,4.11979495 0.554182523,3.48325661 C0.995176433,2.52158264 1.67366234,1.76055743 2.49388323,1.1198621 C2.50601733,1.11036042 2.52246414,1.1063519 2.53949573,1.09863178 C2.54125006,1.11466587 2.54307748,1.12342523 2.54300439,1.13218459 C2.54161554,2.94923248 2.53993431,4.76620614 2.53869167,6.58325403 C2.53847237,6.83549395 2.53233223,7.08795657 2.54358916,7.33967686 C2.55119124,7.50944516 2.62194909,7.58174701 2.78641723,7.58286049 C3.01075178,7.58441936 3.23625588,7.57209687 3.45942087,7.54878806 C3.60861175,7.5332736 3.68185489,7.44263647 3.70188346,7.28652684 C3.71423684,7.18965424 3.72074247,7.091297 3.72088867,6.99360785 C3.72286228,4.93909218 3.72359325,2.88450229 3.72425113,0.829912387 C3.72425113,0.785447493 3.72322777,0.740611439 3.71745311,0.696666168 C3.69004175,0.490672708 3.70188346,0.465953493 3.8831639,0.378953733 C4.06349408,0.292399364 4.24725981,0.21787056 4.44929979,0.202801489 C4.59461653,0.191963635 4.63116501,0.230786906 4.61069786,0.374722516 C4.60331507,0.427427149 4.59812518,0.480948333 4.59812518,0.534024125 C4.59849067,2.39264187 4.59987951,4.25125961 4.60068358,6.10987735 C4.60082977,6.51659381 4.5976135,6.92338449 4.59885615,7.33010095 C4.59944093,7.50387777 4.66398554,7.57974275 4.8351055,7.58338011 C5.0509608,7.58798249 5.26791255,7.5840482 5.48310998,7.56690064 C5.68237227,7.55108925 5.76628757,7.46141714 5.7942106,7.25720525 C5.80985335,7.14311085 5.81467775,7.02664103 5.81511633,6.91121047 C5.81884428,5.82156074 5.82337629,4.73198525 5.82198745,3.64240975 C5.82052551,2.56174208 5.81255794,1.48107441 5.80736805,0.400406746 C5.80590612,0.110085874 5.83280579,0.0717079934 6.08996087,-1.08670017e-13" id="Fill-1" fill="currentColor" mask="url(#mask-2)"></path>
                            </g>
                            <path d="M8.74117037,11.0063351 C7.57645175,12.7063746 7.08227995,14.5417895 7.42376889,16.5630319 C7.7221147,18.3283583 8.53576513,19.8179174 9.92073315,20.99731 C12.6918392,23.357385 16.6675895,23.5138299 19.5788742,21.3635903 C21.2314028,20.1432053 22.2249382,18.5171959 22.5474881,16.5170229 C22.8700379,14.516205 22.375793,12.6888883 21.2188986,11.0063351 L21.3271952,11.0063351 C23.8163352,11.0051885 26.3054021,11.0041852 28.794469,11.0028952 C29.0694151,11.0027519 29.3443612,11.0007453 29.6193074,11.0005303 C29.6718104,11.0004586 29.7248253,11.0017486 29.7768895,11.0079118 C29.9047834,11.0229614 29.9771761,11.0856684 29.9863166,11.2114406 C29.9986745,11.379782 30.000137,11.5491266 29.9999908,11.7180412 C29.9987477,12.9391429 29.9948721,14.1602445 29.9939946,15.3814178 C29.9917278,18.359676 29.9972121,21.3381492 29.9861703,24.316479 C29.9807592,25.7788771 29.438618,27.0457727 28.4350646,28.1191725 C27.5504108,29.0653669 26.4587431,29.6651321 25.1689825,29.899047 C24.8429227,29.9582423 24.5069911,29.9911366 24.1755933,29.9914233 C18.0801253,29.9965832 11.9845841,30.0093395 5.88918923,29.9883417 C3.1360717,29.9788102 0.852483186,28.1893327 0.193489954,25.6177739 C0.062524921,25.1065868 0.00943691764,24.5865848 0.0098025375,24.0596313 C0.0117037608,21.2820354 0.0118500087,18.5041528 0.0101681574,15.7265569 C0.0092906697,14.304793 0.00314825608,12.8830291 3.92530312e-06,11.4612652 C-0.00014232264,11.3983432 0.00380637183,11.3351346 0.0104606532,11.272571 C0.02918039,11.0956298 0.108958643,11.0150066 0.292499812,11.0065501 C0.485035229,10.997807 0.678228762,11.0003153 0.871202923,11.0003869 C3.45379535,11.0021069 6.03653403,11.0042568 8.61919958,11.0063351 L8.74117037,11.0063351 Z" id="Fill-4" fill="currentColor"></path>
                            <path d="M19.9997727,15.5664586 C20.0136016,13.0669631 18.0682622,10.9641662 15.4364659,11.000463 C12.9421272,11.0348732 10.9261321,13.1090704 11.0020776,15.5770986 C11.0787032,18.0696517 13.0906933,20.0668786 15.6276522,19.9982845 C18.0190677,19.9336144 20.0245589,17.9153339 19.9997727,15.5664586 M15.0206995,9.00000074 C18.3266696,9.00170844 21.0050298,11.6954174 20.9999929,15.0136244 C20.994956,18.3430428 18.32504,21.0017069 14.988182,20.9999992 C11.6796194,20.9982172 8.99955557,18.3093343 9,14.9920183 C9.00059257,11.6896261 11.7047297,8.99836729 15.0206995,9.00000074" id="Fill-6" fill="currentColor"></path>
                        </g>
                    </g>
                </g>
            </g>
        </g>
    </g>
</svg>
