<?xml version="1.0" encoding="UTF-8"?>
<svg width="19px" height="19px" viewBox="0 0 19 19" version="1.1" xmlns="http://www.w3.org/2000/svg" xmlns:xlink="http://www.w3.org/1999/xlink">
    <defs>
        <polygon id="path-1" points="18.7516392 -2.56756757e-05 0 -2.56756757e-05 0 18.7516394 18.7516392 18.7516394"></polygon>
    </defs>
    <g id="Designs" stroke="none" stroke-width="1" fill="none" fill-rule="evenodd">
        <g id="Design-Specifics" transform="translate(-1101.000000, -8882.000000)">
            <g id="Page-1-Copy-2" transform="translate(1101.000000, 8882.000000)">
                <path d="M10.4671257,10.4671257 L18.2848554,10.4671257 C18.5421257,10.4671257 18.7516392,10.2576122 18.7516392,10.0003419 L18.7516392,8.75147703 C18.7516392,8.50396351 18.5323689,8.28469324 18.2848554,8.28469324 L10.4671257,8.28469324 L10.4671257,0.466706757 C10.4671257,0.219193243 10.2478554,-7.70270269e-05 10.0000851,0.00017972973 L8.75122027,-7.70270269e-05 C8.49395,0.00017972973 8.28469324,0.209436486 8.28443649,0.466706757 L8.28469324,8.28469324 L0.466706757,8.28469324 C0.34295,8.28469324 0.226125676,8.33347703 0.137287838,8.42205811 C0.0489635135,8.51063919 -7.70270271e-05,8.62746351 -7.70270271e-05,8.75122027 L-7.70270271e-05,10.0000851 C-7.70270271e-05,10.2475986 0.219193243,10.4671257 0.466706757,10.4671257 L8.28469324,10.4671257 L8.28469324,18.2848554 C8.28469324,18.5323689 8.50396351,18.7518959 8.75147703,18.7516392 L10.0003419,18.7516392 C10.1240986,18.7516392 10.2411797,18.7028554 10.3295041,18.6142743 C10.4183419,18.5256932 10.4671257,18.4086122 10.4671257,18.2848554 L10.4671257,10.4671257 Z" id="Fill-1" fill="currentColor"></path>
            </g>
        </g>
    </g>
</svg>
