<?xml version="1.0" encoding="UTF-8"?>
<svg width="19px" height="18px" viewBox="0 0 19 18" version="1.1" xmlns="http://www.w3.org/2000/svg" xmlns:xlink="http://www.w3.org/1999/xlink">
    <g id="Designs" stroke="none" stroke-width="1" fill="none" fill-rule="evenodd">
        <g id="Design-Specifics" transform="translate(-259.000000, -11470.000000)" fill="currentColor">
            <g id="quotes" transform="translate(131.000000, 11470.000000)">
                <g id="Group-5" transform="translate(100.258065, 0.000000)">
                    <path d="M43.0159989,17.6505546 C42.9759342,17.6505546 42.9342006,17.6454855 42.8907971,17.6353473 C42.8473936,17.6252091 42.8089988,17.610002 42.7756115,17.5897255 L37.37691,14.6091035 L31.9782086,17.5897255 C31.8914015,17.6370372 31.7995878,17.6573134 31.7027646,17.6505546 C31.6059414,17.6437958 31.5174663,17.6133816 31.4373368,17.559311 C31.3572072,17.4984817 31.2987803,17.4224462 31.2620543,17.3312022 C31.2253282,17.2399582 31.2136429,17.1436466 31.2269978,17.0422644 L32.2085799,11.0810202 L28.2922677,7.11699558 C28.225493,7.04940744 28.1804209,6.96830289 28.1570497,6.87367949 C28.1336786,6.7790561 28.1386866,6.68443412 28.1720739,6.58981072 C28.1987838,6.49518733 28.248864,6.41746213 28.3223161,6.35663281 C28.3957682,6.29580348 28.4792352,6.2552512 28.5727197,6.23497476 L34.4722283,5.24143407 L36.9161674,0.29400694 C36.9629096,0.199383544 37.0263446,0.126727383 37.1064741,0.0760362776 C37.1866037,0.0253451724 37.2767481,0 37.37691,0 C37.477072,0 37.5672163,0.0253451724 37.6473459,0.0760362776 C37.7274754,0.126727383 37.7909104,0.199383544 37.8376526,0.29400694 L40.2815917,5.24143407 L46.1811003,6.23497476 C46.2745848,6.2552512 46.3580518,6.29580348 46.4315039,6.35663281 C46.504956,6.41746213 46.5550362,6.49518733 46.5817461,6.58981072 C46.6151334,6.68443412 46.6201414,6.7790561 46.5967703,6.87367949 C46.5733992,6.96830289 46.528327,7.04940744 46.4615524,7.11699558 L42.5452402,11.0810202 L43.5268223,17.0422644 C43.5401772,17.1436466 43.5284918,17.2399582 43.4917658,17.3312022 C43.4550397,17.4224462 43.3966128,17.4984817 43.3164832,17.559311 C43.269741,17.5863463 43.2213301,17.6083121 43.1712492,17.6252091 C43.1211682,17.6421062 43.0694186,17.6505546 43.0159989,17.6505546 Z" id="star-copy"></path>
                </g>
            </g>
        </g>
    </g>
</svg>
