<?xml version="1.0" encoding="UTF-8"?>
<svg width="31px" height="25px" viewBox="0 0 31 25" version="1.1" xmlns="http://www.w3.org/2000/svg" xmlns:xlink="http://www.w3.org/1999/xlink">
    <g id="Designs" stroke="none" stroke-width="1" fill="none" fill-rule="evenodd">
        <g id="Design-Specifics" transform="translate(-991.000000, -774.000000)" fill="currentColor">
            <g id="Footer-Design" transform="translate(0.000000, 606.000000)">
                <g id="Footer">
                    <g id="Social" transform="translate(991.000000, 161.000000)">
                        <path d="M31,9.95943944 C29.8593148,10.4613194 28.6336667,10.8008431 27.3471667,10.9529452 C28.6600741,10.1719266 29.6687222,8.93517147 30.1434815,7.46143329 C28.9143889,8.18491512 27.5532593,8.71015153 26.1048704,8.99327789 C24.9446667,7.76620713 23.2919074,7 21.4623333,7 C17.9501481,7 15.1021667,9.82556682 15.1021667,13.311382 C15.1021667,13.8058562 15.1584259,14.287228 15.2669259,14.7492309 C9.98142593,14.4860431 5.29468519,11.9737951 2.15794444,8.15529224 C1.61085185,9.08727356 1.29683333,10.171357 1.29683333,11.3283582 C1.29683333,13.5176028 2.41972222,15.4493563 4.12644444,16.581292 C3.08392593,16.5482511 2.10340741,16.2645551 1.24574074,15.7917284 C1.24516667,15.8185029 1.24516667,15.8447078 1.24516667,15.8714823 C1.24516667,18.9289051 3.43755556,21.4798906 6.34696296,22.0598154 C5.81307407,22.2039421 5.25162963,22.2814173 4.67124074,22.2814173 C4.26135185,22.2814173 3.86294444,22.2415404 3.47487037,22.1680529 C4.28431481,24.6751737 6.63285185,26.4998291 9.41596296,26.5505298 C7.23907407,28.2435912 4.49672222,29.2524781 1.51727778,29.2524781 C1.00405556,29.2524781 0.497722222,29.2228552 0,29.1641791 C2.81468519,30.9552239 6.15751852,32 9.7495,32 C21.4474074,32 27.8448889,22.3828187 27.8448889,14.0428392 C27.8448889,13.7693973 27.8385741,13.4970947 27.8265185,13.2265011 C29.0693889,12.3366754 30.1475,11.2252478 31,9.95943944" id="Twitter"></path>
                    </g>
                </g>
            </g>
        </g>
    </g>
</svg>
